<?xml version="1.0" standalone="no"?>
<!DOCTYPE svg PUBLIC "-//W3C//DTD SVG 20010904//EN"
 "http://www.w3.org/TR/2001/REC-SVG-20010904/DTD/svg10.dtd">
<svg version="1.0" xmlns="http://www.w3.org/2000/svg"
 width="16.000000pt" height="16.000000pt" viewBox="0 0 16.000000 16.000000"
 preserveAspectRatio="xMidYMid meet">
<metadata>
Created by potrace 1.11, written by Peter Selinger 2001-2013
</metadata>
<g transform="translate(0.000000,16.000000) scale(0.001882,-0.001882)"
fill="#000000" stroke="none">
<path d="M30 7490 c8 -5 20 -10 27 -10 6 0 24 -5 40 -12 15 -6 35 -12 44 -14
35 -7 226 -89 307 -131 271 -143 444 -330 538 -580 22 -59 30 -86 51 -188 10
-50 11 -4735 0 -4830 -6 -57 -17 -130 -31 -200 -2 -12 -25 -84 -33 -105 -3 -8
-7 -19 -9 -25 -1 -5 -18 -45 -38 -88 -37 -80 -37 -78 7 -91 6 -2 21 0 32 4 11
4 30 4 42 -1 12 -5 25 -4 28 1 3 5 18 5 33 1 15 -4 38 -5 52 -1 14 4 35 3 47
-1 13 -5 25 -4 28 2 4 5 11 7 16 3 5 -3 31 -5 57 -5 131 3 152 2 162 -4 5 -3
10 0 10 7 0 8 3 9 8 3 8 -11 122 -14 122 -3 0 4 13 3 29 -2 16 -4 32 -6 35 -2
8 7 102 6 115 -2 5 -3 12 0 14 6 3 7 6 8 6 3 1 -7 21 -9 54 -5 60 6 60 4 22
115 -39 115 -52 166 -64 240 -6 39 -14 90 -18 115 -7 43 -16 3823 -11 4234 l3
198 70 -83 c38 -46 72 -86 75 -89 4 -4 68 -81 160 -194 8 -10 20 -23 25 -30 6
-6 89 -105 185 -221 96 -115 177 -212 180 -215 3 -3 37 -43 75 -90 85 -104
114 -138 140 -166 11 -12 25 -28 30 -37 10 -15 254 -307 265 -317 3 -3 33 -39
67 -80 62 -76 101 -122 126 -150 7 -8 33 -40 57 -70 25 -30 55 -66 67 -80 12
-14 31 -36 42 -50 11 -14 26 -31 32 -38 6 -7 33 -41 61 -75 28 -34 59 -69 67
-78 9 -9 23 -25 31 -35 26 -33 104 -128 115 -140 5 -6 26 -30 45 -54 19 -24
40 -48 45 -54 6 -6 53 -63 105 -126 111 -134 131 -159 145 -174 6 -6 30 -36
55 -66 25 -30 47 -57 50 -60 3 -3 51 -59 105 -125 55 -66 104 -125 110 -131 5
-6 26 -31 45 -54 40 -48 141 -171 204 -244 22 -27 54 -65 71 -85 16 -20 32
-38 35 -41 3 -3 37 -43 75 -90 38 -47 79 -96 91 -110 12 -14 40 -47 63 -75 23
-27 57 -68 76 -90 49 -58 68 -81 85 -102 31 -38 166 -199 183 -218 10 -11 28
-33 40 -48 12 -16 29 -36 37 -45 9 -10 61 -71 115 -137 55 -66 102 -122 105
-125 3 -3 24 -27 45 -55 37 -46 80 -95 115 -134 8 -9 35 -41 60 -71 25 -30 47
-57 50 -60 3 -3 34 -39 70 -80 36 -41 74 -84 85 -96 11 -11 39 -42 63 -67 23
-26 45 -47 47 -47 3 0 5 1458 5 3240 l0 3240 -867 -1 c-786 0 -864 -2 -828
-16 22 -8 45 -16 50 -17 6 -2 21 -8 35 -13 14 -6 52 -21 85 -33 117 -43 188
-74 252 -112 36 -21 69 -38 73 -38 5 0 10 -3 12 -7 2 -5 26 -24 53 -43 75 -52
180 -148 225 -207 70 -89 149 -238 164 -308 4 -16 9 -39 11 -50 22 -95 37
-236 39 -367 0 -43 5 -78 9 -78 5 0 5 -4 2 -10 -6 -10 -8 -126 -2 -170 2 -14
1 -29 -1 -34 -8 -15 -7 -106 1 -106 5 0 6 -4 2 -9 -3 -6 -5 -38 -5 -73 0 -76
-1 -127 -3 -191 -1 -26 2 -47 6 -47 5 0 5 -4 2 -10 -6 -10 -8 -126 -2 -170 2
-14 1 -29 -1 -34 -8 -15 -7 -106 1 -106 5 0 6 -4 2 -9 -3 -6 -5 -38 -5 -73 0
-76 -1 -127 -3 -191 -1 -26 2 -47 6 -47 5 0 5 -4 2 -10 -6 -10 -8 -126 -2
-170 2 -14 1 -29 -1 -34 -8 -15 -7 -106 1 -106 5 0 6 -4 2 -9 -3 -6 -5 -38 -5
-73 0 -76 -1 -127 -3 -191 -1 -26 2 -47 6 -47 5 0 5 -4 2 -10 -6 -10 -8 -126
-2 -170 2 -14 1 -29 -1 -34 -8 -15 -7 -106 1 -106 5 0 6 -4 2 -9 -3 -6 -5 -38
-5 -73 0 -76 -1 -127 -3 -191 -1 -26 2 -47 6 -47 5 0 5 -4 2 -10 -6 -10 -8
-126 -2 -170 2 -14 1 -29 -1 -34 -5 -10 -4 -169 1 -208 3 -16 1 -28 -2 -28 -7
0 -5 -86 3 -106 3 -8 2 -14 -2 -14 -5 0 -7 -17 -4 -37 2 -21 3 -45 3 -53 0 -8
-1 -41 -1 -72 1 -32 -1 -58 -3 -58 -3 0 -46 51 -98 113 -51 61 -97 114 -101
115 -4 2 -8 8 -8 13 0 6 -10 20 -23 32 -13 12 -36 40 -53 61 -16 22 -41 53
-56 70 -24 28 -137 166 -227 276 -19 24 -40 48 -45 54 -11 11 -89 106 -113
136 -38 48 -135 167 -146 180 -8 8 -56 67 -108 130 -51 63 -96 117 -99 120 -3
3 -24 28 -45 55 -22 28 -42 52 -45 55 -3 3 -37 43 -75 90 -39 47 -73 87 -77
88 -5 2 -8 8 -8 12 0 5 -10 20 -22 32 -13 13 -36 41 -53 63 -16 21 -35 43 -40
49 -6 6 -49 58 -95 115 -47 58 -92 112 -100 121 -9 9 -29 33 -45 55 -17 22
-37 46 -45 55 -8 9 -30 35 -48 57 -19 23 -41 51 -50 61 -10 11 -30 37 -47 58
-16 20 -35 42 -40 48 -6 6 -50 61 -99 121 -49 61 -94 115 -100 120 -6 6 -27
30 -46 55 -19 25 -44 56 -56 70 -12 14 -67 79 -120 145 -54 66 -102 122 -106
123 -5 2 -8 8 -8 12 0 5 -10 20 -22 33 -13 13 -30 32 -38 43 -25 32 -244 299
-250 304 -3 3 -25 30 -50 60 -25 30 -47 57 -50 60 -3 3 -43 52 -90 110 -46 58
-97 119 -112 135 -15 17 -28 33 -28 37 0 4 -8 15 -18 25 -17 17 -150 175 -182
217 -8 10 -29 35 -46 55 -33 39 -197 239 -254 311 -19 24 -39 48 -45 54 -5 6
-32 38 -60 71 -27 33 -72 83 -99 112 l-49 52 -751 1 c-494 0 -746 -3 -736 -10z"/>
<path d="M6739 4718 c0 -1531 -3 -2830 -6 -2888 -3 -58 -7 -117 -7 -132 -1
-16 -3 -28 -6 -28 -3 0 -6 -19 -7 -43 -3 -39 -9 -82 -13 -82 -1 0 -3 -9 -4
-20 -6 -43 -19 -91 -28 -102 -6 -7 -8 -13 -5 -13 4 0 -9 -43 -28 -95 -19 -52
-34 -95 -32 -96 16 -4 87 -2 87 3 0 4 13 3 29 -2 16 -4 32 -6 35 -2 8 8 102 5
116 -3 5 -3 10 -1 10 5 0 6 5 8 11 4 11 -6 69 -7 142 -1 17 1 42 -1 54 -5 12
-4 25 -3 28 2 3 5 18 5 33 1 15 -4 38 -5 52 -1 14 4 35 3 47 -1 12 -5 25 -4
28 1 3 5 12 7 19 4 21 -8 256 -10 256 -2 0 3 9 4 20 1 15 -4 20 0 20 14 0 10
-4 23 -9 28 -11 13 -87 211 -97 255 -4 19 -8 37 -9 40 -14 60 -24 141 -32 260
-9 128 -10 4524 -1 4631 9 108 20 162 58 292 17 58 61 146 107 213 52 75 171
195 241 242 28 19 52 39 52 43 0 5 5 9 11 9 6 0 23 8 37 19 60 41 274 144 327
157 17 4 35 10 40 14 6 5 36 16 68 25 31 9 55 20 52 25 -3 5 -386 9 -850 10
l-845 1 -1 -2783z"/>
</g>
</svg>
